<svg viewBox="0 0 200 200" xmlns="http://www.w3.org/2000/svg">
  <rect width="200" height="200" fill="#000000"/>
  <circle cx="20" cy="20" r="3" fill="#FFFFFF"/>
  <circle cx="40" cy="20" r="3" fill="#FFFFFF"/>
  <circle cx="60" cy="20" r="3" fill="#FFFFFF"/>
  <circle cx="80" cy="20" r="3" fill="#FFFFFF"/>
  <circle cx="100" cy="20" r="3" fill="#FFFFFF"/>
  <circle cx="120" cy="20" r="3" fill="#FFFFFF"/>
  <circle cx="140" cy="20" r="3" fill="#FFFFFF"/>
  <circle cx="160" cy="20" r="3" fill="#FFFFFF"/>
  <circle cx="180" cy="20" r="3" fill="#FFFFFF"/>
  <circle cx="20" cy="50" r="3" fill="#FFFFFF"/>
  <circle cx="40" cy="50" r="3" fill="#FFFFFF"/>
  <circle cx="60" cy="50" r="3" fill="#FFFFFF"/>
  <circle cx="80" cy="50" r="3" fill="#FFFFFF"/>
  <circle cx="100" cy="50" r="3" fill="#FFFFFF"/>
  <circle cx="120" cy="50" r="3" fill="#FFFFFF"/>
  <circle cx="140" cy="50" r="3" fill="#FFFFFF"/>
  <circle cx="160" cy="50" r="3" fill="#FFFFFF"/>
  <circle cx="180" cy="50" r="3" fill="#FFFFFF"/>
  <circle cx="20" cy="80" r="3" fill="#FFFFFF"/>
  <circle cx="40" cy="80" r="3" fill="#FFFFFF"/>
  <circle cx="60" cy="80" r="3" fill="#FFFFFF"/>
  <circle cx="80" cy="80" r="3" fill="#FFFFFF"/>
  <circle cx="100" cy="80" r="3" fill="#FFFFFF"/>
  <circle cx="120" cy="80" r="3" fill="#FFFFFF"/>
  <circle cx="140" cy="80" r="3" fill="#FFFFFF"/>
  <circle cx="160" cy="80" r="3" fill="#FFFFFF"/>
  <circle cx="180" cy="80" r="3" fill="#FFFFFF"/>
  <circle cx="20" cy="110" r="3" fill="#FFFFFF"/>
  <circle cx="40" cy="110" r="3" fill="#FFFFFF"/>
  <circle cx="60" cy="110" r="3" fill="#FFFFFF"/>
  <circle cx="80" cy="110" r="3" fill="#FFFFFF"/>
  <circle cx="100" cy="110" r="3" fill="#FFFFFF"/>
  <circle cx="120" cy="110" r="3" fill="#FFFFFF"/>
  <circle cx="140" cy="110" r="3" fill="#FFFFFF"/>
  <circle cx="160" cy="110" r="3" fill="#FFFFFF"/>
  <circle cx="180" cy="110" r="3" fill="#FFFFFF"/>
</svg>
